<?xml version="1.0" encoding="utf-8"?>
<!-- Generator: Adobe Illustrator 16.0.0, SVG Export Plug-In . SVG Version: 6.00 Build 0)  -->
<!DOCTYPE svg PUBLIC "-//W3C//DTD SVG 1.1//EN" "http://www.w3.org/Graphics/SVG/1.1/DTD/svg11.dtd">
<svg version="1.1" id="图层_1" xmlns="http://www.w3.org/2000/svg" xmlns:xlink="http://www.w3.org/1999/xlink" x="0px" y="0px"
	 width="270.062px" height="62.014px" viewBox="0 0 270.062 62.014" enable-background="new 0 0 270.062 62.014"
	 xml:space="preserve">
<path fill="#E6C5AB" d="M60.548,31.078c0,16.713-13.554,30.264-30.273,30.264C13.554,61.342,0,47.791,0,31.078
	C0,14.364,13.554,0.813,30.275,0.813C46.995,0.813,60.548,14.364,60.548,31.078"/>
<path fill="#982C23" d="M59.939,31.078c0,16.377-13.281,29.653-29.665,29.653c-16.385,0-29.665-13.276-29.665-29.653
	c0-16.379,13.28-29.655,29.665-29.655C46.658,1.423,59.939,14.699,59.939,31.078"/>
<path fill="#FFFFFF" d="M2.162,30.582l0.021-1.15l3.046,0.056l-0.021,1.15c-0.013,0.703-0.284,1.067-0.81,1.089
	c-0.32-0.016-0.535-0.201-0.65-0.556H3.732c-0.128,0.425-0.397,0.646-0.802,0.66C2.424,31.779,2.169,31.361,2.162,30.582
	 M2.682,30.098l-0.009,0.509c-0.03,0.363,0.099,0.542,0.385,0.534c0.285,0.017,0.425-0.156,0.422-0.518l0.009-0.51L2.682,30.098z
	 M3.998,30.121l-0.01,0.511c-0.005,0.274,0.108,0.42,0.338,0.435c0.241-0.007,0.364-0.147,0.37-0.42l0.01-0.511L3.998,30.121z"/>
<polygon fill="#FFFFFF" points="2.184,32.697 5.217,32.413 5.407,34.445 4.898,34.493 4.771,33.116 4.065,33.182 4.186,34.462 
	3.677,34.509 3.558,33.229 2.754,33.304 2.887,34.73 2.379,34.778 "/>
<polygon fill="#FFFFFF" points="5.664,35.906 2.667,36.445 2.55,35.801 5.546,35.256 "/>
<path fill="#FFFFFF" d="M6.12,37.827l0.167,0.62l-1.973,0.526c-0.653,0.152-1.076-0.088-1.266-0.718
	c-0.179-0.623,0.058-1.037,0.707-1.244l0.171,0.634c-0.361,0.099-0.51,0.262-0.448,0.497c0.057,0.21,0.268,0.28,0.635,0.203
	c0.011-0.002,0.028-0.001,0.051,0.005L6.12,37.827z"/>
<rect x="3.709" y="39.72" transform="matrix(0.9416 -0.3367 0.3367 0.9416 -13.1785 4.0996)" fill="#FFFFFF" width="3.045" height="0.657"/>
<polygon fill="#FFFFFF" points="5.441,44.345 5.039,43.495 6.824,41.341 6.802,41.332 4.525,42.411 4.265,41.86 7.018,40.557 
	7.433,41.436 5.753,43.503 5.775,43.514 7.934,42.49 8.195,43.041 "/>
<path fill="#FFFFFF" d="M7.979,46.316L7.658,45.82l0.427-0.277l0.672,1.036l-1.284,0.832c-0.176-0.147-0.327-0.318-0.451-0.513
	c-0.115-0.135-0.249-0.322-0.404-0.56c-0.471-0.809-0.298-1.491,0.519-2.045c0.841-0.52,1.547-0.408,2.119,0.331
	c0.513,0.792,0.494,1.367-0.058,1.727l-0.376-0.581c0.286-0.185,0.316-0.447,0.096-0.788c-0.328-0.467-0.797-0.502-1.404-0.109
	c-0.607,0.395-0.762,0.833-0.46,1.318c0.089,0.138,0.209,0.29,0.356,0.456c0.005,0.009,0.016,0.016,0.031,0.019L7.979,46.316z"/>
<rect x="9.017" y="48.568" transform="matrix(0.7421 -0.6703 0.6703 0.7421 -30.0569 19.6741)" fill="#FFFFFF" width="3.045" height="0.66"/>
<polygon fill="#FFFFFF" points="12.368,52.793 11.675,52.16 12.506,49.491 12.483,49.491 10.787,51.352 10.337,50.941 
	12.389,48.691 13.106,49.346 12.338,51.897 12.362,51.896 13.969,50.133 14.42,50.542 "/>
<path fill="#FFFFFF" d="M16.264,52.938l-0.512-0.361c0.16-0.265,0.114-0.482-0.138-0.66c-0.271-0.166-0.482-0.153-0.63,0.037
	c-0.153,0.177-0.082,0.399,0.209,0.672c0.013,0.023,0.023,0.044,0.036,0.065c0.51,0.533,0.642,0.965,0.4,1.289
	c-0.386,0.508-0.929,0.526-1.634,0.058c-0.647-0.473-0.774-0.969-0.376-1.494l0.54,0.38c-0.21,0.296-0.177,0.546,0.093,0.751
	c0.331,0.219,0.573,0.228,0.727,0.027c0.114-0.159,0.04-0.388-0.225-0.682c-0.03-0.033-0.054-0.064-0.074-0.092
	c-0.475-0.509-0.586-0.932-0.337-1.266c0.381-0.482,0.92-0.513,1.615-0.09C16.471,51.989,16.572,52.442,16.264,52.938"/>
<polygon fill="#FFFFFF" points="16.916,52.927 17.162,52.479 19.325,53.666 19.081,54.113 18.287,53.677 17.069,55.9 16.491,55.584 
	17.71,53.362 "/>
<rect x="18.041" y="55.089" transform="matrix(0.4037 -0.9149 0.9149 0.4037 -39.0358 50.9432)" fill="#FFFFFF" width="3.044" height="0.658"/>
<polygon fill="#FFFFFF" points="20.835,54.885 21,54.402 23.337,55.202 23.172,55.685 22.315,55.39 21.496,57.789 20.873,57.578 
	21.692,55.179 "/>
<path fill="#FFFFFF" d="M25.747,55.741l0.645,0.136l-0.393,1.867c-0.187,0.734-0.697,1.027-1.529,0.874
	c-0.845-0.2-1.199-0.669-1.065-1.416l0.393-1.869l0.644,0.137L24.1,57.094c-0.182,0.657-0.028,1.021,0.462,1.089
	c0.455,0.13,0.736-0.142,0.845-0.814L25.747,55.741z"/>
<polygon fill="#FFFFFF" points="26.825,56.449 26.868,55.939 29.33,56.15 29.287,56.66 28.384,56.582 28.167,59.108 27.511,59.053 
	27.728,56.526 "/>
<polygon fill="#FFFFFF" points="29.875,59.2 29.808,56.155 31.85,56.109 31.86,56.618 30.478,56.65 30.494,57.358 31.777,57.33 
	31.789,57.84 30.504,57.868 30.521,58.675 31.955,58.643 31.965,59.153 "/>
<path fill="#FFFFFF" d="M36.042,58.627c-0.938,0.172-1.522-0.233-1.749-1.219c-0.188-1.012,0.181-1.633,1.109-1.859
	c0.919-0.157,1.5,0.267,1.743,1.268C37.319,57.813,36.952,58.413,36.042,58.627 M35.5,56.017c-0.515,0.106-0.691,0.525-0.529,1.253
	c0.141,0.73,0.468,1.038,0.981,0.922c0.494-0.104,0.667-0.516,0.517-1.235C36.317,56.228,35.994,55.913,35.5,56.017"/>
<polygon fill="#FFFFFF" points="38.992,57.808 38.383,58.013 37.415,55.125 39.272,54.502 39.436,54.987 38.187,55.406 
	38.417,56.09 39.587,55.7 39.75,56.183 38.579,56.576 "/>
<polygon fill="#FFFFFF" points="41.244,54.219 41.003,53.768 43.181,52.603 43.421,53.052 42.623,53.479 43.82,55.715 43.24,56.026 
	42.042,53.791 "/>
<polygon fill="#FFFFFF" points="45.298,54.861 43.575,52.35 45.259,51.195 45.548,51.617 44.408,52.399 44.808,52.982 
	45.867,52.258 46.156,52.679 45.096,53.402 45.552,54.068 46.733,53.259 47.024,53.681 "/>
<path fill="#FFFFFF" d="M48.308,49.924l-0.522,0.452c-0.254-0.257-0.529-0.274-0.825-0.047c-0.261,0.256-0.161,0.663,0.297,1.223
	c0.49,0.535,0.877,0.688,1.157,0.458c0.275-0.252,0.299-0.527,0.072-0.823l0.522-0.452c0.405,0.535,0.305,1.071-0.302,1.611
	c-0.636,0.522-1.294,0.409-1.972-0.338c-0.659-0.796-0.688-1.476-0.087-2.039C47.276,49.454,47.829,49.439,48.308,49.924"/>
<polygon fill="#FFFFFF" points="50.717,50.382 50.286,50.856 48.031,48.813 48.461,48.336 49.352,49.145 50.126,48.291 
	49.235,47.483 49.678,46.996 51.934,49.042 51.504,49.518 50.515,48.622 49.729,49.485 "/>
<polygon fill="#FFFFFF" points="54.158,45.979 53.623,46.75 50.864,46.273 50.869,46.296 52.935,47.736 52.587,48.235 
	50.088,46.495 50.643,45.698 53.275,46.127 53.27,46.104 51.311,44.74 51.659,44.24 "/>
<path fill="#FFFFFF" d="M55.326,43.923c-0.457,0.839-1.138,1.039-2.047,0.595c-0.907-0.491-1.157-1.169-0.75-2.033
	c0.457-0.813,1.15-1.001,2.084-0.557C55.496,42.418,55.733,43.083,55.326,43.923 M52.954,42.705
	c-0.241,0.468-0.027,0.866,0.641,1.198c0.66,0.352,1.104,0.288,1.336-0.185c0.231-0.449,0.019-0.84-0.635-1.176
	C53.632,42.2,53.186,42.255,52.954,42.705"/>
<polygon fill="#FFFFFF" points="57.005,39.885 56.322,41.719 53.466,40.656 53.69,40.053 56.067,40.938 56.527,39.704 "/>
<path fill="#FFFFFF" d="M57.628,37.75c-0.247,0.924-0.865,1.277-1.851,1.059c-0.997-0.266-1.399-0.866-1.206-1.802
	c0.253-0.899,0.885-1.241,1.896-1.031C57.44,36.247,57.827,36.839,57.628,37.75 M55.036,37.119
	c-0.126,0.512,0.177,0.852,0.905,1.017c0.722,0.189,1.14,0.025,1.254-0.49c0.121-0.492-0.177-0.824-0.891-0.997
	C55.577,36.474,55.154,36.628,55.036,37.119"/>
<path fill="#FFFFFF" d="M57.192,33.272l-0.063,0.587l-0.508-0.051l0.13-1.229l1.522,0.162c0.042,0.225,0.051,0.451,0.027,0.682
	c0.002,0.178-0.01,0.407-0.042,0.689c-0.14,0.922-0.704,1.343-1.688,1.261c-0.98-0.126-1.459-0.655-1.437-1.592
	c0.101-0.938,0.476-1.371,1.131-1.302l-0.073,0.688c-0.338-0.035-0.528,0.147-0.572,0.552c-0.037,0.567,0.303,0.892,1.024,0.967
	c0.719,0.077,1.114-0.167,1.186-0.734c0.018-0.164,0.022-0.356,0.011-0.579c0.001-0.011-0.003-0.021-0.012-0.032L57.192,33.272z"/>
<polygon fill="#FFFFFF" points="58.392,30.867 57.404,30.882 55.364,31.958 55.352,31.187 56.738,30.534 55.327,29.918 
	55.316,29.26 57.392,30.244 58.379,30.225 "/>
<path fill="#E6C5AB" d="M53.437,31.078c0,12.789-10.371,23.153-23.162,23.153c-12.793,0-23.164-10.364-23.164-23.153
	S17.481,7.922,30.274,7.922C43.066,7.922,53.437,18.289,53.437,31.078"/>
<path fill="#153A1D" d="M53.031,31.078c0,12.564-10.189,22.749-22.757,22.749c-12.569,0-22.757-10.185-22.757-22.749
	S17.705,8.329,30.274,8.329C42.841,8.329,53.031,18.514,53.031,31.078"/>
<path fill="#FFFFFF" d="M36.563,12.809c-0.44-0.017-0.762,0.07-0.968,0.152c0.498-0.486,0.808-0.88,0.866-0.955
	c0.196-0.044,0.548-0.199,0.749-0.736c0.338-0.908,0.184-1.493,0.184-1.493s-0.785,0.34-1.06,1.063
	c-0.18,0.462-0.134,0.819-0.08,1.013c-0.081,0.107-0.315,0.392-0.733,0.77c0.103-0.21,0.189-0.527,0.198-0.998
	c0.014-0.97-0.217-1.309-0.217-1.309s-0.646,0.432-0.646,1.431c0,0.753,0.175,1.095,0.26,1.219c-0.285,0.23-0.629,0.481-1.036,0.738
	c0.14-0.22,0.292-0.577,0.345-1.125c0.107-1.104-0.307-1.433-0.307-1.433s-0.678,0.508-0.693,1.507
	c-0.011,0.716,0.191,1.1,0.306,1.261c-0.392,0.228-0.823,0.438-1.223,0.617c0.177-0.228,0.364-0.597,0.364-1.154
	c0-1.063-0.277-1.369-0.277-1.369s-0.739,0.507-0.739,1.521c0,0.667,0.146,1.017,0.246,1.177c-0.645,0.272-1.139,0.44-1.139,0.44
	l0.062,0.4c0,0,0.512-0.151,1.216-0.442c0.056,0.151,0.271,0.6,0.953,0.903c0.833,0.369,1.509,0.031,1.509,0.031
	s-0.384-0.539-1.093-0.893c-0.387-0.194-0.687-0.245-0.897-0.245c0.357-0.161,0.737-0.352,1.114-0.57
	c0.005-0.004,0.009-0.007,0.015-0.01c0.103,0.178,0.408,0.55,1.231,0.764c0.893,0.23,1.354-0.046,1.354-0.046
	s-0.188-0.604-1.125-0.847c-0.481-0.126-0.825-0.144-1.061-0.122c0.39-0.262,0.741-0.544,1.041-0.815
	c0.146,0.116,0.574,0.398,1.237,0.398c0.831,0,1.309-0.6,1.309-0.6S37.379,12.839,36.563,12.809"/>
<path fill="#FFFFFF" d="M41.562,16.798c0,0-2.07,0.635-4.32,0.969c-2.684,0.398-5.649,0.344-5.649,0.344l-0.574-2.963
	c0,0-0.085-0.992-0.744-0.992c-0.661,0-0.744,0.992-0.744,0.992l-0.576,2.963c0,0-2.963,0.055-5.648-0.344
	c-2.251-0.334-4.321-0.969-4.321-0.969s-0.014,1.475,1.174,2.608c1.085,1.033,2.147,1.054,2.147,1.054s-0.088,1.356,1.209,2.155
	c0.848,0.521,1.854,0.254,1.854,0.254s0.262,1.159,1.553,1.359c1.29,0.2,1.773-0.299,1.773-0.299l-0.603,2.752h4.358l-0.602-2.752
	c0,0,0.483,0.5,1.774,0.299c1.29-0.2,1.552-1.359,1.552-1.359s1.008,0.267,1.854-0.254c1.298-0.798,1.211-2.155,1.211-2.155
	s1.062-0.021,2.147-1.054C41.576,18.273,41.562,16.798,41.562,16.798"/>
<path fill="#366E35" d="M43.951,36.253c-2.64,0-13.676-0.579-13.676-0.579s-11.038,0.579-13.676,0.579
	c-3.413,0-4.817-0.603-4.817-0.603s0.873,1.928,2.352,2.582c1.233,0.544,1.662,0.716,5.734,1.433c4.071,0.716,8.171,1.03,8.171,1.03
	l-0.803,3.756l3.04,0.658l3.039-0.658l-0.802-3.756c0,0,4.1-0.314,8.171-1.03c4.07-0.717,4.501-0.889,5.733-1.433
	c1.479-0.654,2.353-2.582,2.353-2.582S47.363,36.253,43.951,36.253"/>
<path fill="#2A923B" d="M41.714,31.467c-6.565,0.087-11.439,0.198-11.439,0.198s-4.875-0.111-11.44-0.198
	c-4.358-0.057-5.591-0.259-5.591-0.259s0.734,1.123,1.606,1.922c1.033,0.945,2.953,1.863,6.68,2.607
	c3.728,0.745,6.594,0.976,6.594,0.976l-0.745,3.383l2.896,0.567l2.896-0.567l-0.746-3.383c0,0,2.868-0.23,6.594-0.976
	c3.729-0.744,5.648-1.662,6.681-2.607c0.871-0.799,1.606-1.922,1.606-1.922S46.073,31.41,41.714,31.467"/>
<path fill="#88C18F" d="M40.338,27.024c-2.985,0.066-10.063,0.137-10.063,0.137s-7.08-0.071-10.065-0.137
	c-2.637-0.057-3.669-0.172-5.074-0.401c0,0,2.007,3.783,6.767,5.103c4.414,1.223,6.278,1.09,6.278,1.09l-0.688,3.266l2.782,0.341
	l2.781-0.341l-0.688-3.266c0,0,1.864,0.133,6.278-1.09c4.759-1.319,6.766-5.103,6.766-5.103
	C44.007,26.853,42.975,26.967,40.338,27.024"/>
<path fill="#CEE5DB" d="M37.736,22.475c-0.15,0.147-0.327,0.289-0.535,0.417c-0.668,0.41-1.409,0.395-1.81,0.345
	c-0.182,0.418-0.646,1.146-1.718,1.313c-0.594,0.091-1.039,0.048-1.362-0.039c0.164,0.758,0.544,2.494,0.544,2.494h-5.166
	c0,0,0.38-1.736,0.547-2.494c-0.324,0.086-0.771,0.13-1.364,0.039c-1.071-0.167-1.537-0.895-1.718-1.313
	c-0.402,0.05-1.143,0.065-1.809-0.345c-0.21-0.128-0.386-0.27-0.536-0.417c-4.252-0.319-5.871-0.867-5.871-0.867
	s2.266,5.274,7.685,6.649c2.144,0.546,3.669,0.402,3.669,0.402l-0.687,2.922l2.666,0.082l2.667-0.082l-0.689-2.922
	c0,0,1.526,0.144,3.67-0.402c5.419-1.375,7.684-6.649,7.684-6.649S41.989,22.155,37.736,22.475"/>
<path fill="#366E35" d="M37.137,51.31c-0.539-0.188-0.941-0.404-1.129-0.536c-0.188-0.137-0.376-0.487-0.592-0.487
	c-0.215,0-0.322-0.268-0.458-0.375c-0.134-0.108-0.322-0.026-0.403-0.108c-0.082-0.078-0.082-0.403-0.431-0.563
	c-0.349-0.162-0.484-0.107-0.645-0.189c-0.161-0.08-0.243-0.349-0.457-0.376c-0.216-0.025-0.404-0.025-0.699-0.107
	c-0.297-0.08-0.323-0.483-0.646-0.483c-0.323,0-0.941-0.027-0.941-0.027v-1.856l0.188,0.002l-0.65-0.646l-0.651,0.646l0.188-0.002
	v1.856c0,0-0.619,0.027-0.941,0.027c-0.324,0-0.351,0.403-0.645,0.483c-0.296,0.082-0.485,0.082-0.7,0.107
	c-0.216,0.027-0.297,0.296-0.458,0.376c-0.161,0.082-0.295,0.027-0.646,0.189c-0.349,0.16-0.349,0.485-0.43,0.563
	c-0.079,0.082-0.269,0-0.403,0.108c-0.134,0.107-0.242,0.375-0.457,0.375c-0.215,0-0.403,0.351-0.591,0.487
	c-0.188,0.132-0.592,0.349-1.13,0.536c-0.537,0.188-2.258,0.241-2.258,0.241h18.243C39.396,51.551,37.674,51.497,37.137,51.31"/>
<path fill="#FFFFFF" d="M27.551,49.288v1.814h-0.231v-1.278h-0.434v-0.183c0.303,0.013,0.468-0.103,0.494-0.354H27.551z"/>
<path fill="#FFFFFF" d="M28.661,50.67h0.222c0.027,0.193,0.132,0.29,0.313,0.29c0.236,0.008,0.379-0.217,0.434-0.674h-0.01
	c-0.074,0.136-0.212,0.206-0.414,0.212c-0.363-0.02-0.551-0.215-0.564-0.584c0.02-0.403,0.214-0.612,0.584-0.626
	c0.41,0.007,0.621,0.286,0.635,0.838c-0.027,0.657-0.248,0.993-0.665,1.006C28.865,51.127,28.688,50.972,28.661,50.67
	 M29.245,50.298c0.222-0.015,0.335-0.152,0.342-0.413c-0.007-0.25-0.126-0.376-0.362-0.383c-0.222,0.014-0.34,0.147-0.353,0.402
	C28.872,50.172,28.997,50.304,29.245,50.298"/>
<path fill="#FFFFFF" d="M31.776,50.658h-0.272v0.444h-0.222v-0.444h-0.795v-0.222l0.827-1.148h0.191v1.18h0.272V50.658z
	 M31.272,49.642l-0.575,0.826h0.584v-0.826H31.272z"/>
<path fill="#FFFFFF" d="M33.662,50.226c-0.013,0.599-0.222,0.901-0.625,0.906c-0.403-0.005-0.612-0.308-0.625-0.906
	c0.013-0.618,0.222-0.931,0.625-0.938C33.434,49.302,33.643,49.615,33.662,50.226 M33.42,50.226c0-0.482-0.127-0.724-0.383-0.724
	c-0.249,0-0.373,0.241-0.373,0.724c0,0.483,0.124,0.728,0.373,0.728C33.293,50.944,33.42,50.704,33.42,50.226"/>
<path fill="#366E35" d="M23.328,51.788c-0.533-0.197-1.181-0.241-1.181-0.08c0,0.105,0.545,0.079,0.925,0.373
	c0.371,0.288,0.462,0.729,0.462,0.729h0.622C24.156,52.811,24.172,52.096,23.328,51.788 M24.709,51.866
	c-0.069,0-0.125,0.057-0.125,0.124v0.855c0,0.068,0.056,0.123,0.125,0.123c0.068,0,0.124-0.055,0.124-0.123V51.99
	C24.833,51.923,24.777,51.866,24.709,51.866 M25.545,51.866c-0.069,0-0.125,0.057-0.125,0.124v0.855
	c0,0.068,0.056,0.123,0.125,0.123c0.069,0,0.125-0.055,0.125-0.123V51.99C25.669,51.923,25.614,51.866,25.545,51.866 M25.126,51.698
	c-0.063,0-0.115,0.051-0.115,0.115v1.208c0,0.065,0.052,0.116,0.115,0.116c0.064,0,0.115-0.051,0.115-0.116v-1.208
	C25.241,51.749,25.19,51.698,25.126,51.698 M30.771,52.969c0.07,0,0.125-0.055,0.125-0.123V51.99c0-0.067-0.056-0.124-0.125-0.124
	c-0.067,0-0.124,0.057-0.124,0.124v0.855C30.647,52.914,30.704,52.969,30.771,52.969 M29.938,52.969
	c0.067,0,0.124-0.055,0.124-0.123V51.99c0-0.067-0.057-0.124-0.124-0.124c-0.07,0-0.126,0.057-0.126,0.124v0.855
	C29.812,52.914,29.868,52.969,29.938,52.969 M30.354,53.138c0.065,0,0.116-0.051,0.116-0.116v-1.208c0-0.064-0.05-0.115-0.116-0.115
	c-0.063,0-0.115,0.051-0.115,0.115v1.208C30.238,53.087,30.29,53.138,30.354,53.138 M36.001,51.866
	c-0.069,0-0.125,0.057-0.125,0.124v0.855c0,0.068,0.056,0.123,0.125,0.123c0.068,0,0.124-0.055,0.124-0.123V51.99
	C36.125,51.923,36.069,51.866,36.001,51.866 M35.583,51.698c-0.063,0-0.116,0.051-0.116,0.115v1.208
	c0,0.065,0.053,0.116,0.116,0.116c0.063,0,0.115-0.051,0.115-0.116v-1.208C35.697,51.749,35.646,51.698,35.583,51.698
	 M35.164,51.866c-0.069,0-0.124,0.057-0.124,0.124v0.855c0,0.068,0.055,0.123,0.124,0.123c0.069,0,0.125-0.055,0.125-0.123V51.99
	C35.289,51.923,35.233,51.866,35.164,51.866 M34.41,52.028c-0.692-0.543-1.439-0.477-1.939-0.406
	c-1.491,0.208-1.543,1.694-1.543,1.694l-1.23-0.012c0,0,0.105-1.417-1.277-1.636c-1.332-0.213-1.759,0.024-2.229,0.532
	c-0.238,0.26-0.368,0.905-0.263,0.976c0.098,0.066,0.145-0.068,0.149-0.081c0.093-0.328,0.449-1.216,1.611-1.102
	c1.417,0.139,1.277,1.496,1.277,1.496l2.147,0.278c0,0,0.052-2.076,1.847-1.81c1.473,0.221,1.207,1.531,1.207,1.531l0.753-0.075
	C34.92,53.415,35.049,52.527,34.41,52.028 M36.838,51.891c-0.374,0.268-0.513,0.576-0.584,0.92
	c-0.042,0.201,0.011,0.252,0.078,0.246c0.035-0.005,0.078-0.079,0.099-0.136c0.06-0.172,0.16-0.453,0.532-0.657
	c0.509-0.278,1.189-0.133,1.189-0.133v-0.528C37.72,51.603,37.211,51.622,36.838,51.891"/>
<path fill="#FFFFFF" d="M10.656,14.165c-0.321-0.321-0.668-0.738-0.847-0.965c-0.179-0.226-0.345-0.548-0.548-0.559
	c-0.202-0.013-0.405,0.322-0.489,0.407c-0.061,0.061-0.192,0.085-0.261,0.112c-0.027,0.01-0.047,0.06-0.049,0.064
	c-0.035,0.265,0.12,0.25,0.25,0.274c0.132,0.022,0.322,0.321,0.466,0.63c0.142,0.311-0.191,0.345-0.31,0.668
	c-0.119,0.321,0.143,0.416,0.297,0.572c0.155,0.154,0.285,0.202,0.298,0.167c0.012-0.037,0.203-0.285,0.333-0.405
	c0.131-0.12,0.251,0.023,0.359,0.238c0.106,0.213-0.131,0.655-0.203,0.916c-0.071,0.263-0.167,0.322-0.047,0.394
	s0.392,0.143,0.571,0.143c0.18,0,0.228-0.13,0.228-0.25c0-0.119,0.071-0.25,0.119-0.595c0.047-0.346,0.238-0.811,0.238-1.215
	C11.062,14.355,10.978,14.486,10.656,14.165 M13.441,13.094c-0.191-0.191-0.261-0.539-0.555-0.341
	c-0.293,0.197-0.611,0.594-0.808,0.475c-0.199-0.118-0.58-0.3-0.58-0.562c0-0.262,0.135-0.484,0.183-0.65
	c0.047-0.167,0.175-0.245,0.071-0.467c-0.103-0.222-0.358-0.334-0.5-0.23c-0.144,0.104-0.119,0.491-0.318,0.373
	c-0.197-0.119-0.214-0.213-0.214-0.325c0-0.111-0.19-0.484-0.42-0.35c-0.23,0.136-0.578,0.389-0.714,0.603c0,0-0.047,0.136,0,0.213
	c0.048,0.081,0.452,0.58,0.682,0.913c0.23,0.332,0.547,0.801,0.865,1.102c0.316,0.301,0.657,0.587,0.926,0.587
	c0.271,0,0.881-0.563,1.032-0.729C13.243,13.538,13.633,13.285,13.441,13.094"/>
<path fill="#FFFFFF" d="M17.202,6.833c0.374-0.369,0.909-0.868,1.062-0.962c0.153-0.095,0.347-0.142,0.299-0.336
	c-0.046-0.193-0.257-0.378-0.524-0.258c-0.27,0.121-0.795,0.61-0.795,0.61S17.091,5.14,16.576,5.26
	c-0.516,0.122-0.747,0.563-0.747,0.563s-0.037,0.189,0.167,0.226c0.206,0.038,0.212,0.147,0.217,0.248
	c0.005,0.1-0.042,0.206,0.089,0.22c0.132,0.017,0.079-0.089,0.237-0.024c0,0,0.047,0.104-0.01,0.184
	c-0.059,0.079-0.753,0.688-1,0.888c-0.246,0.201-0.34,0.294-0.321,0.473c0.02,0.161,0.142,0.453,0.468,0.243
	C16.002,8.067,16.829,7.201,17.202,6.833 M17.481,9.597c-0.124,0.005-0.294,0.301-0.384,0.267c-0.068-0.026-0.154-0.128-0.154-0.128
	c-0.144-0.117-0.23,0.1-0.272,0.416c-0.043,0.313,0.218,0.649,0.41,0.698c0.191,0.048,0.23-0.208,0.341-0.315
	c0.113-0.105,0.15-0.276,0.155-0.522C17.582,9.767,17.604,9.591,17.481,9.597 M19.78,8.119c-0.149-0.132-0.33-0.193-0.475-0.16
	c-0.144,0.033-0.17,0.113-0.32,0.16c-0.15,0.049-0.251-0.064-0.353,0.102c0,0,0.048,0.25,0.208,0.374
	C19,8.717,19.225,8.839,19.299,8.93c0.075,0.09,0.102,0.208,0.166,0.181c0.066-0.025,0.326-0.303,0.373-0.374
	C19.886,8.668,19.929,8.253,19.78,8.119 M18.264,8.52c0,0,0.06-0.033,0.128-0.129c0.07-0.096,0.017-0.213,0.022-0.47
	c0.005-0.255,0.025-0.517,0.048-0.81c0.021-0.293-0.085-0.506-0.464-0.454c-0.379,0.054-0.426,0.241-0.464,0.348
	c-0.037,0.106-0.576,0.72-0.731,0.784c-0.155,0.063-0.289,0.005-0.289,0.005c-0.42,0.074-0.154,0.613,0.065,0.847
	c0.218,0.235,0.58,0.609,0.704,0.582c0.123-0.026,0.122-0.153,0.33-0.165c0.208-0.011,0.23,0.261,0.406,0.484
	c0.187,0.237,0.064,0.342,0,0.378c-0.046,0.027-0.112,0.065-0.266,0.033c-0.155-0.033-0.092,0.165-0.092,0.165
	s0.262,0.113,0.416,0.16c0.155,0.049,0.326,0.043,0.593,0.049c0.267,0.005,0.256-0.146,0.277-0.566
	c0.022-0.42-0.208-0.613-0.475-0.901C18.207,8.572,18.264,8.52,18.264,8.52 M17.649,7.906c-0.079,0.125-0.048,0.313-0.178,0.361
	c-0.131,0.046-0.325,0.01-0.199-0.184c0.125-0.194,0.22-0.292,0.267-0.36c0.048-0.067-0.005-0.109,0.125-0.104
	C17.665,7.619,17.727,7.779,17.649,7.906"/>
<path fill="#FFFFFF" d="M25.163,5.896c-0.123-0.023-0.079-0.188,0.13-0.326c0.209-0.137,0.282-0.239,0.252-0.382
	c-0.028-0.145-0.086-0.188-0.194-0.231c-0.108-0.043-0.224-0.08-0.216-0.253c0.007-0.173,0.145-0.361,0.202-0.456
	c0.058-0.093,0.166-0.324,0.13-0.57c-0.036-0.247-0.196-0.441-0.527-0.282c-0.333,0.158-0.434,0.383-0.651,0.505
	c-0.135,0.077-0.336,0.174-0.499,0.296c-0.086,0.065-0.16,0.253,0.065,0.361c0.223,0.108,0.223,0.21,0.339,0.225
	c0.115,0.014,0.21-0.065,0.231,0.093s-0.03,0.332-0.188,0.411c-0.16,0.08-0.368,0.086-0.368,0.26c0,0.173,0.353,0.218,0.361,0.441
	c0.006,0.223-0.037,0.266-0.188,0.418c-0.151,0.153-0.348,0.225-0.311,0.491c0.036,0.269,0.275,0.601,0.512,0.564
	c0.239-0.036,0.305-0.312,0.521-0.485c0.217-0.172,0.838-0.491,0.823-0.815C25.576,5.839,25.286,5.918,25.163,5.896 M28.401,5.889
	c-0.231-0.065-0.405,0.086-0.68,0.173c-0.274,0.086-0.332,0.015-0.339-0.086c-0.008-0.102,0.347-0.231,0.405-0.361
	c0.057-0.131,0.021-0.289-0.21-0.36c-0.231-0.073-0.231,0.057-0.411,0.137c-0.182,0.079-0.074-0.232-0.074-0.232
	s0.247-0.007,0.478-0.173c0.23-0.167,0.187-0.238,0.267-0.513c0.08-0.275,0.303-0.491,0.419-0.946
	c0.115-0.457,0.028-0.448-0.109-0.651c-0.137-0.201-0.36-0.244-0.679-0.143c-0.318,0.1-1.12,0.578-1.336,0.657
	c-0.217,0.079-0.477,0.007-0.477,0.007c-0.188,0.059-0.081,0.419-0.066,0.563c0.015,0.138,0.015,0.368,0.124,0.498
	c0.108,0.13,0.051,0.231,0.008,0.405c-0.043,0.173,0.072,0.268,0.208,0.391c0.138,0.121,0.203,0.166,0.283,0.143
	c0.079-0.022,0.158-0.143,0.253,0.015c0.094,0.159-0.008,0.124-0.196,0.195c-0.187,0.073-0.201,0.102-0.201,0.318
	c0,0.217,0.354,0.094,0.433,0.224c0.08,0.13-0.245,0.217-0.541,0.318c-0.297,0.101-0.396,0.145-0.303,0.404
	c0.079,0.225,0.251,0.354,0.433,0.333c0.18-0.022,0.606-0.297,1.084-0.462c0.477-0.167,0.578-0.102,1.02-0.094
	c0.439,0.006,0.368-0.167,0.411-0.361C28.646,6.091,28.631,5.954,28.401,5.889 M27.07,3.462c0.102-0.086,0.225-0.145,0.29-0.072
	c0.064,0.072-0.008,0.253-0.073,0.295c-0.064,0.044-0.173,0.131-0.26,0.016C26.94,3.586,27.07,3.462,27.07,3.462 M26.298,3.881
	c0.115-0.116,0.198-0.219,0.275-0.08c0,0,0.024,0.081-0.054,0.179c-0.04,0.051-0.098,0.11-0.15,0.124
	C26.32,4.119,26.182,3.997,26.298,3.881 M26.573,4.618c-0.08,0.081-0.21,0.173-0.253,0.057c-0.043-0.115,0-0.208,0.108-0.23
	c0.108-0.022,0.151-0.086,0.216,0.035C26.644,4.479,26.635,4.554,26.573,4.618 M26.962,4.343c0-0.05,0.094-0.123,0.094-0.123
	c0.123-0.137,0.267-0.029,0.231,0.028c-0.035,0.058-0.086,0.218-0.188,0.225C26.999,4.479,26.962,4.393,26.962,4.343"/>
<path fill="#FFFFFF" d="M35.612,3.825c0,0,0.439,0.056,0.736,0.024c0.296-0.033,0.704-0.168,0.896-0.088
	c0.192,0.08,0.368,0.375,0.288,0.607c-0.08,0.232-0.313,0.248-0.425,0.311c-0.111,0.065-0.175,0.112-0.279,0.129
	c-0.104,0.016-0.32-0.088-0.416,0.063c-0.096,0.152,0.024,0.225-0.064,0.385c-0.088,0.159-0.472,0.646-0.225,0.704
	c0.25,0.056,0.665,0.016,0.896,0.103c0.232,0.088,0.409,0.216,0.425,0.496c0.015,0.281,0.007,0.496-0.345,0.487
	c-0.352-0.007-0.968-0.432-1.88-0.527c-0.911-0.096-1.319-0.104-1.575-0.064c-0.256,0.041-0.631,0.135-0.681-0.248
	c-0.046-0.384-0.023-0.615,0.45-0.591c0.47,0.022,0.896,0.072,1.367-0.065c0.472-0.136,0.624-0.624,0.536-0.76
	c-0.088-0.134-0.265-0.127-0.375-0.112c-0.112,0.017-0.145-0.144-0.081-0.28c0.065-0.135-0.048-0.184-0.048-0.383
	c0-0.2-0.041-0.48,0.24-0.44S35.261,3.754,35.612,3.825"/>
<path fill="#FFFFFF" d="M42.573,6.962c0,0-0.213,0.075-0.181,0.32c0.032,0.246,0.148,0.395,0.31,0.449
	c0.16,0.053,0.416,0.083,0.319,0.19c-0.096,0.106-0.544,0.343-0.863,0.384c-0.321,0.043-0.502,0.097-0.812,0.097
	c-0.309,0-0.353,0-0.353,0.096c0,0.096,0.085,0.17,0.097,0.255c0.01,0.085,0.032,0.299,0.694,0.299c0.661,0,1.078-0.107,1.269-0.182
	c0.192-0.074,0.33-0.17,0.33-0.17s0.193,0.448,0.247,0.842c0.053,0.395,0.042,0.65,0.042,0.78c0,0.126-0.085,0.181,0.149,0.394
	c0.235,0.213,0.534,0.512,0.897,0.512c0.362,0,0.459-0.299,0.459-0.299s-0.61-0.512-0.811-1.121
	c-0.203-0.607-0.193-0.682-0.214-0.875c-0.021-0.188-0.213-0.736,0.075-0.756c0.288-0.022,0.48,0.064,0.865,0.117
	c0.383,0.054,0.692,0.01,0.629-0.268c-0.064-0.277-0.192-0.426-0.47-0.447c-0.277-0.021-0.693-0.031-0.693-0.031
	s0.479-0.374,0.383-0.661c-0.102-0.309-0.194-0.202-0.374-0.321c-0.096-0.063-0.117-0.245-0.319-0.074
	c-0.203,0.17-0.353,0.469-0.502,0.606c-0.149,0.14-0.193,0.184-0.416,0.033C43.106,6.984,42.84,6.803,42.573,6.962"/>
<path fill="#FFFFFF" d="M49.996,12.148c0,0-0.229,0.229-0.229,0.312c0,0.081,0.128,0.191,0.229,0.191
	c0.099,0,0.219-0.293,0.374-0.448c0.156-0.154,0.704-0.84,0.813-0.785c0.109,0.054,0.265,0.155,0.183,0.301
	c-0.081,0.147-0.996,0.979-1.052,1.034c-0.054,0.054-0.036,0.146,0.046,0.19c0.083,0.046,0.43,0.33,0.475,0.375
	c0.046,0.045,0.12,0.065,0.156-0.009c0.036-0.073,0-0.165-0.091-0.155c-0.092,0.009-0.119-0.056-0.119-0.056s0.191-0.09,0.082-0.127
	c-0.109-0.036-0.146,0-0.255-0.028c-0.111-0.027-0.073-0.183,0.073-0.273c0.146-0.092,0.74-0.822,0.84-0.786
	c0.1,0.037,0.091,0.146,0,0.247c-0.09,0.101-0.22,0.292-0.283,0.357c-0.065,0.063-0.083,0.146-0.056,0.173
	c0.027,0.027,0.138,0.064,0.138,0.12c0,0.054-0.148,0.146,0,0.164c0.146,0.019,0.383-0.055,0.282-0.19
	c-0.1-0.139-0.238-0.139-0.238-0.139s-0.073-0.173,0.129-0.237c0.201-0.065,0.182,0.037,0.246-0.019
	c0.065-0.053,0.009-0.302,0.174-0.292c0.164,0.01,0,0.302,0.193,0.284c0.19-0.019,0.236-0.21,0.411-0.128
	c0.173,0.083,0.282,0.421,0.074,0.448c-0.212,0.027-0.249-0.019-0.367,0.083c-0.117,0.1-0.146,0.246-0.283,0.328
	c-0.137,0.083-0.558,0.046-0.65,0.174c-0.091,0.128,0,0.43,0.139,0.43c0.136,0,0.054-0.284,0.182-0.321
	c0.128-0.036,0.128,0.01,0.22,0c0.091-0.009,0.073-0.137,0.173-0.127c0.102,0.009,0.238,0.028,0.338-0.019
	c0.102-0.046,0.11-0.302,0.275-0.292c0.164,0.009,0.265,0.119,0.411,0.146c0.146,0.027,0.247,0.02,0.247,0.247
	c0,0.229-0.09,0.338-0.338,0.33c-0.247-0.009-0.465,0.027-0.731,0.183c-0.265,0.154-0.438,0.246-0.21,0.337
	c0.229,0.092,0.265,0.284,0.301,0.466c0.037,0.183-0.209,0.531-0.42,0.521c-0.21-0.01-0.411-0.238-0.593-0.411
	c-0.184-0.174-0.285-0.312-0.687-0.312c-0.401,0-0.667,0.036-0.547,0.165c0.118,0.127,0.3,0.074,0.392,0.292
	c0.092,0.219,0.064,0.549-0.046,0.584c-0.11,0.037-0.312-0.009-0.484-0.155c-0.173-0.146-0.266-0.256-0.466-0.2
	c-0.201,0.055-0.302,0.292-0.632,0.456c-0.329,0.166-0.604,0.056-0.859-0.164c-0.256-0.22-0.292-0.266-0.219-0.375
	c0.072-0.109,0.092-0.156,0.092-0.255c0-0.101-0.01-0.229-0.01-0.229s0.275,0.11,0.357,0.219c0.081,0.11,0.21,0.184,0.393,0.156
	c0.183-0.027,0.457-0.137,0.319-0.275c-0.136-0.137-0.602-0.456-0.711-0.575c-0.111-0.119-0.138-0.255,0.055-0.392
	c0.191-0.138,0.265-0.238,0.43-0.056c0.164,0.182,0.311,0.329,0.438,0.411c0.126,0.083,0.182,0.128,0.348,0.046
	c0.164-0.082,0.383-0.146,0.191-0.238c-0.191-0.09-0.329-0.082-0.419-0.219c-0.092-0.137,0.219-0.448,0.502-0.375
	c0.284,0.073,0.54,0.356,0.658,0.42c0.118,0.064,0.347,0.073,0.439,0.256s0.229,0.365,0.384,0.402
	c0.156,0.037,0.329,0.045,0.156-0.136c-0.174-0.183-0.805-0.687-1.034-0.86c-0.229-0.173-0.512-0.355-0.796-0.347
	c-0.282,0.009-0.53,0.082-0.704-0.083c-0.173-0.164-0.027-0.284,0.157-0.475c0.182-0.19,0.209-0.284,0.447-0.292
	C49.667,12.13,49.74,12.176,49.996,12.148"/>
<path fill="#040000" d="M87.995,25.855c0-2.62,0.292-5.725,0.485-7.375c0.195-1.65,0.826-3.639,0.048-4.513
	c-0.776-0.873-2.97-0.33-3.648-0.33c-0.495,0-1.132-0.43-1.524-0.606c-0.147-0.066-0.436,0.05-0.454,0.064
	c-1.224,0.939-0.535,1.504-0.098,2.135c0.437,0.631,0,2.62-0.679,4.463c-0.679,1.845-2.183,0.632-3.978,1.456
	c-1.796,0.824-1.117,2.28-1.117,3.541c0,1.263,0.34,1.991,0.534,1.893c0.194-0.094,1.99-0.337,3.01-0.29
	c1.018,0.049,0.921,1.116,0.484,2.426c-0.436,1.31-3.201,2.136-4.56,2.91c-1.359,0.776-1.991,0.632-1.795,1.409
	c0.194,0.774,1.019,2.182,1.747,2.909s1.456,0.388,1.941-0.095c0.485-0.486,1.311-0.729,2.912-1.941
	c1.601-1.215,4.269-2.329,5.918-3.979C88.87,28.282,87.995,28.475,87.995,25.855 M103.698,32.835c0-1.55,1.129-3.264-0.871-3.649
	c-2.002-0.389-4.908-0.065-5.231-1.357c-0.322-1.291-1.129-3.583-0.064-4.649c1.066-1.066,2.52-1.42,3.39-1.906
	c0.872-0.483,1.712-0.292,2.196-1.613c0.485-1.325-0.098-2.81-1.099-2.97c-1.001-0.162-2.485,1.517-2.808,0.226
	c-0.323-1.292-0.002-1.745,0.451-2.196c0.452-0.452,1.195-2.743-0.29-3.131c-1.486-0.388-3.94-0.774-5.361-0.452
	c0,0-0.742,0.354-0.872,0.872c-0.129,0.515-0.516,4.197-0.937,6.49c-0.419,2.292-1.034,5.487-0.968,8.007
	c0.064,2.518,0.29,5.066,1.389,6.166c1.098,1.097,5.876,1.292,7.167,1.227C101.083,33.835,103.698,34.385,103.698,32.835"/>
<path fill="#040000" d="M124.043,16.702c2.893-0.865,6.973-1.957,8.004-2.027c1.03-0.069,2.148,0.215,2.433-0.902
	c0.285-1.119-0.288-2.623-1.978-2.732c-1.691-0.108-5.688,0.959-5.688,0.959s1.241-4.211-1.708-4.989
	c-2.948-0.776-5.319,0.847-5.319,0.847s-0.698,0.862,0.246,1.604c0.944,0.743,0.671,1.319,0.429,1.841
	c-0.244,0.521-0.769,0.929-0.142,1.363c0.626,0.437,0.644-0.24,1.275,0.505c0,0-0.042,0.664-0.55,0.908
	c-0.507,0.245-5.687,1.474-7.484,1.822c-1.797,0.35-2.533,0.575-2.909,1.542c-0.338,0.87-0.5,2.683,1.727,2.493
	C114.606,19.748,121.15,17.565,124.043,16.702 M117.996,31.516c-0.638-0.302-2.306,0.744-2.673,0.318
	c-0.271-0.314-0.44-1.067-0.44-1.067c-0.411-0.984-1.441-0.104-2.507,1.381c-1.068,1.482-0.645,3.901,0.202,4.662
	c0.847,0.764,1.728-0.439,2.586-0.678c0.857-0.242,1.508-1.008,2.199-2.242C118.051,32.658,118.635,31.821,117.996,31.516
	 M133.681,30.21c-0.399-1.082-1.165-1.87-1.984-2.097c-0.819-0.224-1.17,0.111-2.06-0.048c-0.889-0.161-1.104-1.003-2.062-0.437
	c0,0-0.433,1.405,0.048,2.461c0.483,1.058,1.291,2.285,1.427,2.948c0.133,0.663-0.049,1.332,0.35,1.371
	c0.398,0.035,2.474-0.668,2.908-0.893C132.737,33.293,134.08,31.292,133.681,30.21 M124.895,28.153c0,0,0.383-0.003,0.996-0.304
	c0.613-0.301,0.658-1.042,1.375-2.331c0.721-1.289,1.535-2.558,2.435-3.994c0.901-1.434,0.934-2.806-1.135-3.56
	c-2.07-0.75-2.819,0.069-3.296,0.511c-0.478,0.441-4.875,2.106-5.835,2.015c-0.959-0.092-1.479-0.752-1.479-0.752
	c-2.346-0.757-2.443,2.703-1.965,4.486c0.479,1.785,1.316,4.663,2.01,4.86c0.698,0.197,1.037-0.458,2.13,0.051
	c1.086,0.51,0.461,1.948,0.751,3.563c0.307,1.711-0.597,1.911-1.023,1.926c-0.307,0.014-0.742,0.023-1.442-0.557
	c-0.701-0.581-0.908,0.597-0.908,0.597s1.026,1.275,1.684,1.936c0.657,0.662,1.539,1.098,2.881,1.844
	c1.342,0.747,1.692-0.042,2.938-2.127s0.598-3.68,0.02-5.865C124.452,28.266,124.895,28.153,124.895,28.153 M123.419,23.366
	c-0.737,0.427-1.086,1.467-1.878,1.354c-0.792-0.114-1.678-0.823-0.517-1.468c1.16-0.645,1.908-0.896,2.33-1.116
	c0.423-0.217,0.271-0.572,0.922-0.19C124.276,21.947,124.157,22.938,123.419,23.366"/>
<path fill="#040000" d="M150.718,27.955c-0.669-0.265-0.235-1.153,1.101-1.689c1.343-0.538,1.863-1.025,1.863-1.875
	c0.004-0.848-0.276-1.159-0.838-1.528c-0.563-0.366-1.175-0.7-0.938-1.671c0.239-0.971,1.229-1.876,1.66-2.34
	c0.431-0.464,1.309-1.647,1.383-3.074c0.077-1.428-0.601-2.711-2.658-2.19c-2.054,0.519-2.883,1.668-4.245,2.117
	c-0.848,0.278-2.093,0.602-3.149,1.104c-0.563,0.271-1.186,1.249-0.043,2.115c1.141,0.865,1.026,1.436,1.661,1.649
	c0.639,0.214,1.259-0.13,1.201,0.793c-0.059,0.923-0.542,1.844-1.531,2.111c-0.985,0.269-2.177,0.072-2.373,1.052
	c-0.197,0.978,1.749,1.627,1.535,2.898c-0.209,1.271-0.505,1.468-1.535,2.151c-1.026,0.685-2.21,0.872-2.309,2.42
	c-0.102,1.549,0.867,3.698,2.255,3.764c1.387,0.067,2.066-1.408,3.487-2.141c1.419-0.733,5.289-1.822,5.574-3.672
	C153.108,28.094,151.386,28.216,150.718,27.955 M168.999,31.588c-1.233-0.631-2.382,0.029-4.032,0.206
	c-1.648,0.178-1.891-0.292-1.818-0.875c0.075-0.578,2.222-0.911,2.694-1.58c0.474-0.668,0.451-1.605-0.773-2.276
	c-1.221-0.67-1.37,0.064-2.48,0.307c-1.109,0.244-0.143-1.388-0.143-1.388s1.394,0.238,2.887-0.438
	c1.495-0.674,1.331-1.13,2.093-2.591c0.758-1.459,2.271-2.428,3.437-4.867c1.173-2.438,0.674-2.496,0.129-3.794
	c-0.545-1.297-1.762-1.796-3.668-1.586c-1.912,0.211-6.98,1.992-8.295,2.194c-1.313,0.202-2.697-0.5-2.697-0.5
	c-1.126,0.114-0.93,2.274-1.01,3.106c-0.071,0.793-0.336,2.098,0.131,2.955c0.463,0.856,0.021,1.362-0.419,2.292
	c-0.444,0.931,0.103,1.591,0.737,2.44c0.635,0.851,0.954,1.167,1.427,1.136c0.474-0.033,1.063-0.634,1.413,0.369
	c0.35,1.004-0.181,0.687-1.323,0.879c-1.143,0.194-1.257,0.341-1.503,1.564c-0.247,1.226,1.891,0.933,2.193,1.758
	c0.301,0.825-1.634,0.944-3.422,1.178c-1.785,0.235-2.397,0.365-2.171,1.94c0.193,1.355,1.026,2.286,2.07,2.367
	c1.043,0.085,3.762-0.983,6.642-1.379c2.881-0.396,3.379,0.084,5.858,0.626c2.478,0.542,2.269-0.521,2.735-1.572
	C170.155,33.008,170.229,32.217,168.999,31.588 M164.25,16.374c0.67-0.374,1.429-0.56,1.714-0.08
	c0.286,0.483-0.326,1.421-0.745,1.592c-0.414,0.169-1.125,0.537-1.483-0.214C163.377,16.919,164.25,16.374,164.25,16.374
	 M159.409,17.863c0.784-0.523,1.367-1.009,1.643-0.138c0,0,0.049,0.482-0.507,0.955c-0.282,0.24-0.68,0.504-0.98,0.529
	C159.262,19.232,158.625,18.384,159.409,17.863 M160.122,22.333c-0.539,0.368-1.379,0.742-1.493,0.04
	c-0.112-0.701,0.239-1.182,0.878-1.182c0.635,0,0.952-0.318,1.18,0.45C160.687,21.642,160.548,22.045,160.122,22.333
	 M162.638,21.228c0.058-0.287,0.668-0.587,0.668-0.587c0.852-0.636,1.542,0.14,1.273,0.427c-0.27,0.284-0.736,1.124-1.313,1.05
	C162.686,22.043,162.581,21.513,162.638,21.228"/>
<path fill="#040000" d="M188.645,18.07c0,0,2.531-0.337,4.131-0.952c1.603-0.615,3.673-1.971,4.86-1.811
	c1.184,0.163,2.6,1.551,2.497,2.959c-0.103,1.409-1.372,1.84-1.9,2.361c-0.528,0.521-0.813,0.884-1.368,1.124
	c-0.555,0.243-1.912-0.017-2.222,0.971c-0.312,0.987,0.463,1.209,0.211,2.231c-0.254,1.021-1.673,4.3-0.211,4.247
	c1.464-0.054,3.721-0.888,5.14-0.742c1.421,0.148,2.589,0.602,3.092,2.135c0.502,1.536,0.774,2.752-1.195,3.222
	c-1.972,0.476-6.024-0.979-11.242-0.167c-5.214,0.813-7.497,1.366-8.863,1.967c-1.365,0.603-3.314,1.688-4.148-0.376
	c-0.833-2.065-1.042-3.396,1.618-3.955c2.664-0.563,5.093-0.921,7.52-2.374c2.426-1.451,2.553-4.391,1.863-5.02
	c-0.69-0.626-1.657-0.322-2.257-0.068c-0.602,0.254-1.016-0.589-0.856-1.441c0.152-0.85-0.54-0.951-0.835-2.065
	s-0.93-2.614,0.688-2.804C186.779,17.325,186.582,18.188,188.645,18.07"/>
<path fill="#040000" d="M213.193,23.104c0,0-0.825,1.008,0.073,2.115c0.896,1.108,1.923,1.489,2.869,1.267
	c0.944-0.221,2.3-0.834,2.148-0.022c-0.148,0.814-1.643,3.317-3.084,4.49c-1.442,1.173-2.171,1.981-3.69,2.912
	c-1.518,0.933-1.727,1.062-1.438,1.533c0.289,0.471,0.932,0.578,1.241,0.967c0.309,0.386,1.059,1.369,4.304-0.624
	c3.246-1.992,4.966-3.768,5.683-4.715c0.719-0.944,1.11-1.833,1.11-1.833s2.293,1.622,3.743,3.398
	c1.451,1.776,2.171,3.065,2.556,3.693c0.387,0.628,0.129,1.147,1.921,1.486c1.794,0.342,4.161,0.906,5.942-0.186
	c1.777-1.093,1.352-2.848,1.352-2.848s-4.527-0.683-7.354-3.057c-2.828-2.375-3.002-2.771-3.682-3.648
	c-0.674-0.864-3.265-2.969-1.915-3.943c1.348-0.973,2.547-1.132,4.593-2.027c2.046-0.896,3.437-2.036,2.286-3.205
	c-1.149-1.169-2.229-1.516-3.655-0.785c-1.424,0.73-3.498,1.932-3.498,1.932s1.232-3.28-0.108-4.405
	c-1.434-1.203-1.559-0.399-2.797-0.446c-0.662-0.024-1.315-0.85-1.796,0.598c-0.481,1.45-0.313,3.366-0.629,4.495
	c-0.315,1.131-0.396,1.47-1.943,1.412C215.876,21.602,214.019,21.515,213.193,23.104"/>
<path fill="#040000" d="M244.704,18.748c0,0,0.155,1.854,0.52,2.159c0.362,0.305,1.319,0.149,1.693-0.293
	c0.373-0.443-0.473-2.052-0.583-3.312c-0.106-1.262-1.09-6.222-0.442-6.5c0.649-0.28,1.669-0.591,2.009,0.313
	c0.338,0.905,0.61,8.017,0.646,8.462c0.037,0.445,0.508,0.704,1.014,0.512c0.508-0.193,3.043-0.671,3.416-0.703
	c0.37-0.031,0.723-0.286,0.536-0.717c-0.188-0.433-0.727-0.61-1.023-0.174c-0.301,0.435-0.684,0.319-0.684,0.319
	s0.313-1.185-0.257-0.837c-0.569,0.348-0.544,0.644-1.072,1.026c-0.528,0.381-1.075-0.357-0.935-1.341
	c0.14-0.983-0.874-6.313-0.34-6.621c0.535-0.307,0.981,0.141,1.086,0.917c0.103,0.775,0.475,2.051,0.518,2.569
	c0.045,0.519,0.338,0.907,0.562,0.888c0.223-0.02,0.79-0.367,1.032-0.164c0.241,0.204,0.1,1.187,0.725,0.611
	c0.623-0.576,1.184-1.894,0.207-1.959c-0.979-0.068-1.487,0.535-1.487,0.535s-1.036-0.321-0.571-1.444
	c0.465-1.122,0.84-0.669,0.838-1.154c-0.004-0.486-1.296-1.16-0.645-1.85c0.648-0.691,1.328,1.119,1.961,0.205
	c0.633-0.912-0.043-1.826,0.961-2.285c1.007-0.46,2.905,0.313,2.246,1.34c-0.659,1.027-0.997,1.02-0.997,1.915
	c0.002,0.896,0.543,1.559,0.399,2.469c-0.147,0.909-1.87,2.624-1.646,3.501c0.226,0.877,1.894,1.595,2.402,0.991
	c0.508-0.605-1.045-1.293-0.731-1.992c0.315-0.7,0.516-0.531,0.815-0.966c0.299-0.437-0.332-0.831,0.079-1.24
	c0.414-0.408,1.006-0.944,1.176-1.557c0.172-0.612-0.92-1.602-0.271-2.293c0.653-0.69,1.509-0.725,2.173-1.268
	c0.663-0.542,0.995-1.019,2.003-0.171c1.005,0.849,1.146,1.658,0.19,2.711c-0.954,1.053-1.607,2.155-1.907,3.898
	c-0.299,1.745-0.544,2.848,0.709,2.181c1.249-0.667,2.23-0.115,3.172,0.402c0.94,0.519,1.551,2.893,0.733,3.786
	c-0.823,0.893-2.574,0.929-4.018,1.09c-1.442,0.16-2.421,0.094-3.913,1.864c-1.491,1.772-2.314,3.074-1.311,3.025
	c1.003-0.045,1.441-1.055,2.746-0.644c1.308,0.411,2.651,1.754,2.405,2.373c-0.245,0.62-1.193,1.333-2.481,1.555
	c-1.29,0.223-2.111,0.218-2.615,1.306c-0.504,1.09,0.168,2.417-0.33,4.475c-0.495,2.059-1.996,2.859-3.913,3.172
	c-1.916,0.313-2.254,0.304-2.463-0.424c-0.213-0.73-0.345-0.979-0.788-1.352c-0.444-0.374-1.041-0.81-1.041-0.81
	s1.501-0.8,2.288-0.755c0.788,0.046,1.585-0.247,2.146-1.153c0.557-0.909,1.092-2.522-0.022-2.429
	c-1.11,0.096-4.251,0.96-5.183,1.002c-0.928,0.044-1.633-0.344-1.525-1.7c0.108-1.354-0.063-2.049,1.354-2.093
	c1.417-0.047,2.603-0.147,3.441-0.405c0.836-0.257,1.239-0.331,1.489-1.359c0.248-1.031,0.78-2.234-0.334-1.728
	c-1.114,0.506-1.583,1.144-2.526,1.036c-0.944-0.105-1.159-2.627,0.215-3.605c1.372-0.975,3.571-1.05,4.296-1.336
	c0.723-0.286,1.609-1.259,2.754-0.983c1.145,0.277,2.458,0.351,3.197-0.197c0.737-0.547,1.421-1.278-0.029-1.193
	c-1.447,0.087-6.002,0.998-7.615,1.359c-1.613,0.361-3.471,0.931-4.482,2.211c-1.01,1.282-1.605,2.64-2.974,2.794
	c-1.368,0.153-1.35-0.932-1.518-2.449c-0.166-1.518-0.465-1.977,0.377-3.058C243.399,20.129,243.874,19.976,244.704,18.748"/>
<path fill="#040000" d="M74.667,51.595v-7.521h3.329c1.315,0.055,2.013,0.686,2.096,1.892c-0.029,0.767-0.357,1.287-0.987,1.561
	c0.931,0.355,1.398,0.974,1.398,1.85c-0.11,1.425-0.973,2.163-2.59,2.219H74.667z M75.693,44.896v2.343h1.808
	c1.042,0.027,1.563-0.384,1.563-1.232c0-0.712-0.521-1.081-1.563-1.11H75.693z M75.693,48.102v2.63h2.178
	c1.014-0.027,1.548-0.479,1.603-1.355c0-0.851-0.602-1.274-1.808-1.274H75.693z"/>
<polygon fill="#040000" points="87.325,50.69 87.325,51.595 81.776,51.595 81.776,44.073 87.242,44.073 87.242,44.938 
	82.803,44.938 82.803,47.278 86.913,47.278 86.913,48.184 82.803,48.184 82.803,50.69 "/>
<rect x="88.802" y="44.074" fill="#040000" width="1.028" height="7.521"/>
<path fill="#040000" d="M90.941,49.17h0.945v0.536c-0.027,0.847,0.356,1.259,1.15,1.23c0.796,0.028,1.193-0.409,1.193-1.313v-5.549
	h1.027v5.506c-0.028,1.372-0.753,2.083-2.177,2.139c-1.371-0.026-2.083-0.631-2.137-1.81V49.17z"/>
<rect x="96.98" y="44.074" fill="#040000" width="1.028" height="7.521"/>
<polygon fill="#040000" points="104.749,50.157 104.749,44.073 105.736,44.073 105.736,51.595 104.586,51.595 100.763,45.513 
	100.722,45.513 100.722,51.595 99.736,51.595 99.736,44.073 100.969,44.073 "/>
<path fill="#040000" d="M110.626,48.43v-0.862h3.288v4.027h-0.658l-0.247-0.945c-0.603,0.686-1.424,1.043-2.466,1.069
	c-1.041,0-1.822-0.26-2.343-0.782c-0.85-0.74-1.247-1.793-1.191-3.164c0.164-2.465,1.356-3.769,3.575-3.902
	c1.863,0.134,2.93,0.958,3.205,2.464h-0.985c-0.302-1.04-1.055-1.574-2.261-1.603c-1.589,0.138-2.411,1.165-2.466,3.084
	c0,2.08,0.835,3.121,2.508,3.121c0.603,0.028,1.123-0.137,1.562-0.493c0.52-0.438,0.78-1.108,0.78-2.014H110.626z"/>
<rect x="118.558" y="44.074" fill="#040000" width="1.028" height="7.521"/>
<polygon fill="#040000" points="126.325,50.157 126.325,44.073 127.313,44.073 127.313,51.595 126.16,51.595 122.339,45.513 
	122.298,45.513 122.298,51.595 121.313,51.595 121.313,44.073 122.544,44.073 "/>
<path fill="#040000" d="M134.379,46.252h-0.943c-0.082-0.96-0.713-1.466-1.891-1.521c-1.125,0.027-1.686,0.466-1.686,1.316
	c-0.027,0.547,0.274,0.863,0.904,0.943l2.138,0.494c1.122,0.301,1.685,0.986,1.685,2.056c-0.055,1.396-1.042,2.122-2.959,2.177
	c-1.095,0-1.848-0.22-2.261-0.658c-0.549-0.409-0.809-1.039-0.78-1.89h0.987c0,1.15,0.684,1.741,2.054,1.767
	c1.315-0.025,1.987-0.451,2.016-1.273c0.083-0.685-0.468-1.138-1.645-1.355l-1.564-0.332c-1.068-0.271-1.601-0.875-1.601-1.807
	c0.081-1.48,0.958-2.246,2.63-2.301C133.325,43.896,134.298,44.688,134.379,46.252"/>
<polygon fill="#040000" points="135.243,44.938 135.243,44.073 141.325,44.073 141.325,44.938 138.778,44.938 138.778,51.595 
	137.791,51.595 137.791,44.938 "/>
<rect x="142.395" y="44.074" fill="#040000" width="1.029" height="7.521"/>
<polygon fill="#040000" points="144.53,44.938 144.53,44.073 150.614,44.073 150.614,44.938 148.066,44.938 148.066,51.595 
	147.079,51.595 147.079,44.938 "/>
<path fill="#040000" d="M156.489,44.073h1.029v4.851c-0.084,1.807-1.111,2.739-3.082,2.794c-1.863-0.055-2.823-0.932-2.875-2.628
	v-5.017h1.024v4.728c0,1.37,0.629,2.068,1.892,2.097c1.313,0,1.986-0.7,2.012-2.097V44.073z"/>
<polygon fill="#040000" points="158.463,44.938 158.463,44.073 164.545,44.073 164.545,44.938 161.997,44.938 161.997,51.595 
	161.011,51.595 161.011,44.938 "/>
<polygon fill="#040000" points="171.122,50.69 171.122,51.595 165.574,51.595 165.574,44.073 171.04,44.073 171.04,44.938 
	166.601,44.938 166.601,47.278 170.71,47.278 170.71,48.184 166.601,48.184 166.601,50.69 "/>
<path fill="#040000" d="M182.342,47.855c-0.192,2.492-1.411,3.78-3.659,3.863c-2.328-0.083-3.562-1.371-3.698-3.863
	c0.137-2.577,1.37-3.903,3.698-3.985C180.957,43.952,182.176,45.278,182.342,47.855 M181.313,47.855
	c-0.11-1.974-0.986-3.014-2.631-3.124c-1.698,0.083-2.576,1.123-2.628,3.124c0.052,1.972,0.93,2.986,2.628,3.04
	C180.327,50.814,181.203,49.8,181.313,47.855"/>
<polygon fill="#040000" points="184.683,48.184 184.683,51.595 183.656,51.595 183.656,44.073 188.876,44.073 188.876,44.938 
	184.683,44.938 184.683,47.278 188.381,47.278 188.381,48.184 "/>
<polygon fill="#040000" points="192.204,44.938 192.204,44.073 198.285,44.073 198.285,44.938 195.738,44.938 195.738,51.595 
	194.753,51.595 194.753,44.938 "/>
<polygon fill="#040000" points="204.862,50.69 204.862,51.595 199.313,51.595 199.313,44.073 204.779,44.073 204.779,44.938 
	200.342,44.938 200.342,47.278 204.451,47.278 204.451,48.184 200.342,48.184 200.342,50.69 "/>
<path fill="#040000" d="M212.466,46.293h-0.987c-0.247-0.985-0.945-1.507-2.095-1.562c-1.589,0.11-2.41,1.123-2.467,3.041
	c0,2.083,0.835,3.123,2.508,3.123c1.149-0.025,1.863-0.725,2.136-2.095h0.987c-0.329,1.861-1.439,2.835-3.329,2.918
	c-2.193-0.083-3.317-1.384-3.369-3.904c0.082-2.521,1.26-3.836,3.534-3.946C211.139,43.952,212.163,44.76,212.466,46.293"/>
<polygon fill="#040000" points="218.712,47.157 218.712,44.074 219.739,44.074 219.739,51.595 218.712,51.595 218.712,48.102 
	214.768,48.102 214.768,51.595 213.739,51.595 213.739,44.074 214.768,44.074 214.768,47.157 "/>
<polygon fill="#040000" points="226.314,50.157 226.314,44.073 227.302,44.073 227.302,51.595 226.151,51.595 222.328,45.513 
	222.287,45.513 222.287,51.595 221.302,51.595 221.302,44.073 222.533,44.073 "/>
<path fill="#040000" d="M235.85,47.855c-0.192,2.492-1.411,3.78-3.657,3.863c-2.329-0.083-3.563-1.371-3.7-3.863
	c0.137-2.577,1.371-3.903,3.7-3.985C234.467,43.952,235.686,45.278,235.85,47.855 M234.821,47.855
	c-0.11-1.974-0.985-3.014-2.629-3.124c-1.7,0.083-2.576,1.123-2.632,3.124c0.056,1.972,0.932,2.986,2.632,3.04
	C233.836,50.814,234.711,49.8,234.821,47.855"/>
<polygon fill="#040000" points="238.067,44.073 238.067,50.69 241.892,50.69 241.892,51.595 237.039,51.595 237.039,44.073 "/>
<path fill="#040000" d="M249.862,47.855c-0.192,2.492-1.411,3.78-3.657,3.863c-2.327-0.083-3.56-1.371-3.7-3.863
	c0.141-2.577,1.373-3.903,3.7-3.985C248.479,43.952,249.698,45.278,249.862,47.855 M248.838,47.855
	c-0.11-1.974-0.987-3.014-2.633-3.124c-1.696,0.083-2.576,1.123-2.628,3.124c0.052,1.972,0.932,2.986,2.628,3.04
	C247.851,50.814,248.728,49.8,248.838,47.855"/>
<path fill="#040000" d="M254.386,48.43v-0.862h3.284v4.027h-0.655l-0.248-0.945c-0.602,0.686-1.421,1.043-2.465,1.069
	c-1.04,0-1.822-0.26-2.343-0.782c-0.85-0.74-1.245-1.793-1.191-3.164c0.163-2.465,1.355-3.769,3.575-3.902
	c1.863,0.134,2.934,0.958,3.206,2.464h-0.986c-0.3-1.04-1.055-1.574-2.261-1.603c-1.589,0.138-2.412,1.165-2.466,3.084
	c0,2.08,0.838,3.121,2.507,3.121c0.604,0.028,1.122-0.137,1.561-0.493c0.523-0.438,0.782-1.108,0.782-2.014H254.386z"/>
<polygon fill="#040000" points="262.48,48.553 262.48,51.595 261.452,51.595 261.452,48.553 258.616,44.073 259.81,44.073 
	261.947,47.69 264.124,44.073 265.316,44.073 "/>
</svg>
